HIERARCHY
ROOT Hips
{
	OFFSET 0.000000 0.000000 0.000000
	CHANNELS 6 Xposition Yposition Zposition Zrotation Yrotation Xrotation 
	JOINT LeftUpLeg_virtual
	{
		OFFSET 0.000000 0.000000 0.000000
		CHANNELS 3 Zrotation Yrotation Xrotation
		JOINT LeftUpLeg
		{
			OFFSET 10.205400 -3.823500 0.155100
			CHANNELS 3 Zrotation Yrotation Xrotation
			JOINT LeftLeg
			{
				OFFSET 0.708757 -12.982077 0.567790
				CHANNELS 3 Zrotation Yrotation Xrotation
				JOINT LeftFoot
				{
					OFFSET -0.708756 -10.717838 -2.184338
					CHANNELS 3 Zrotation Yrotation Xrotation
					JOINT LeftToeBase
					{
						OFFSET 0.108149 -7.191104 7.560241
						CHANNELS 3 Zrotation Yrotation Xrotation
						End Site
						{
							OFFSET 0.000000 0.000000 0.000000
						}
					}
				}
			}
		}
	}
	JOINT RightUpLeg_virtual
	{
		OFFSET 0.000000 0.000000 0.000000
		CHANNELS 3 Zrotation Yrotation Xrotation
		JOINT RightUpLeg
		{
			OFFSET -10.205400 -3.823500 0.005500
			CHANNELS 3 Zrotation Yrotation Xrotation
			JOINT RightLeg
			{
				OFFSET -0.708756 -12.982134 0.610632
				CHANNELS 3 Zrotation Yrotation Xrotation
				JOINT RightFoot
				{
					OFFSET 0.708754 -10.717769 -1.945823
					CHANNELS 3 Zrotation Yrotation Xrotation
					JOINT RightToeBase
					{
						OFFSET -0.108140 -7.191069 7.372968
						CHANNELS 3 Zrotation Yrotation Xrotation
						End Site
						{
							OFFSET 0.000000 0.000000 0.000000
						}
					}
				}
			}
		}
	}
	JOINT Spine_virtual
	{
		OFFSET 0.000000 0.000000 0.000000
		CHANNELS 3 Zrotation Yrotation Xrotation
		JOINT Spine
		{
			OFFSET 0.000000 6.876099 0.125700
			CHANNELS 3 Zrotation Yrotation Xrotation
			JOINT Spine1
			{
				OFFSET 0.000000 8.022060 0.146608
				CHANNELS 3 Zrotation Yrotation Xrotation
				JOINT Spine2
				{
					OFFSET 0.000000 9.168068 0.167552
					CHANNELS 3 Zrotation Yrotation Xrotation
					JOINT Neck_virtual
					{
						OFFSET 0.000000 0.000000 0.000000
						CHANNELS 3 Zrotation Yrotation Xrotation
						JOINT Neck
						{
							OFFSET 0.000000 10.314075 0.188496
							CHANNELS 3 Zrotation Yrotation Xrotation
							JOINT Head
							{
								OFFSET 0.000000 7.643700 -2.377400
								CHANNELS 3 Zrotation Yrotation Xrotation
								End Site
								{
									OFFSET 0.000000 0.000000 0.000000
								}
							}
						}
					}
					JOINT LeftShoulder_virtual
					{
						OFFSET 0.000000 0.000000 0.000000
						CHANNELS 3 Zrotation Yrotation Xrotation
						JOINT LeftShoulder
						{
							OFFSET 4.392200 8.824978 0.174984
							CHANNELS 3 Zrotation Yrotation Xrotation
							JOINT LeftArm
							{
								OFFSET 8.771219 -2.981674 -0.026999
								CHANNELS 3 Zrotation Yrotation Xrotation
								JOINT LeftForeArm
								{
									OFFSET 8.512804 0.000000 -0.000000
									CHANNELS 3 Zrotation Yrotation Xrotation
									JOINT LeftHand
									{
										OFFSET 18.484802 0.000000 -0.000000
										CHANNELS 3 Zrotation Yrotation Xrotation
										End Site
										{
											OFFSET 0.000000 0.000000 0.000000
										}
									}
								}
							}
						}
					}
					JOINT RightShoulder_virtual
					{
						OFFSET 0.000000 0.000000 0.000000
						CHANNELS 3 Zrotation Yrotation Xrotation
						JOINT RightShoulder
						{
							OFFSET -4.392200 8.824993 0.141379
							CHANNELS 3 Zrotation Yrotation Xrotation
							JOINT RightArm
							{
								OFFSET -8.771282 -2.981682 -0.094208
								CHANNELS 3 Zrotation Yrotation Xrotation
								JOINT RightForeArm
								{
									OFFSET -8.494598 0.000000 0.000000
									CHANNELS 3 Zrotation Yrotation Xrotation
									JOINT RightHand
									{
										OFFSET -18.483803 0.000000 0.000001
										CHANNELS 3 Zrotation Yrotation Xrotation
										End Site
										{
											OFFSET 0.000000 0.000000 0.000000
										}
									}
								}
							}
						}
					}
				}
			}
		}
	}
}
MOTION
Frames: 8
Frame Time: 0.033333
-43.117420 35.618217 0.161245 -179.990894 23.987705 -178.640702 -2.109077 -4.877563 10.876036 -16.489115 5.659651 -12.909186 17.257972 -3.395386 29.701522 -13.490491 -0.406435 -3.783276 0.000000 0.000000 0.000000 2.690555 -2.417930 8.368847 -3.427801 -0.950920 -39.869098 -7.343432 2.062163 18.101907 8.359284 3.261923 20.669993 0.000000 0.000000 0.000000 2.936880 0.137019 -6.694229 2.488309 3.642582 -6.530286 -0.051077 -3.250674 7.813925 0.027596 0.079139 0.135252 -0.449882 -1.324169 11.035061 1.516203 -8.057473 22.732608 0.000000 0.000000 0.000000 0.949100 -0.837109 7.466865 -10.875426 -8.443622 2.739750 -70.587915 6.972676 -17.750620 175.721042 -81.028542 -158.704336 0.000000 0.000000 0.000000 -2.762489 0.558079 7.165234 15.065111 13.740172 6.260939 15.565810 -40.436014 55.429294 -27.813282 83.069020 -24.202297 0.000000 0.000000 0.000000 
-42.346851 35.388256 -1.071509 179.916089 23.626606 -178.419035 -2.236487 -4.813459 10.751749 -16.013302 5.391676 -11.255505 17.236069 -4.337642 30.665634 -13.306289 -0.868046 -3.605472 0.000000 0.000000 0.000000 2.668943 -2.775718 8.017482 -3.087654 -1.067938 -39.351698 -7.172961 1.446195 16.494108 8.226035 3.715916 23.851553 0.000000 0.000000 0.000000 2.990027 -0.004488 -7.706958 2.436934 3.630015 -6.599383 0.040246 -3.350179 7.817408 0.018699 0.027401 0.142734 -0.298218 -1.477693 11.127279 2.061133 -8.638519 23.158709 0.000000 0.000000 0.000000 1.167232 -0.854485 7.490835 -11.043338 -8.247657 2.717865 -70.307659 7.389388 -18.549276 175.456399 -81.341542 -158.830216 0.000000 0.000000 0.000000 -2.631215 0.603161 7.307216 15.184019 13.589718 6.123850 15.485115 -40.058182 55.402567 -29.403613 83.557611 -25.995253 0.000000 0.000000 0.000000 
-41.478409 35.182720 -2.376905 179.884588 23.193972 -178.160389 -2.458617 -4.400016 10.719130 -15.137419 4.954452 -9.453169 17.315950 -5.271857 31.495539 -13.192924 -1.397043 -3.329592 0.000000 0.000000 0.000000 2.672169 -2.767025 7.529022 -2.480139 -0.784795 -38.365811 -6.768113 1.980491 15.787004 9.037785 4.792323 24.373330 0.000000 0.000000 0.000000 2.948430 -0.230020 -8.527265 2.327804 3.646492 -6.983430 0.265417 -3.354063 7.688951 0.030593 0.111643 0.273120 -0.228396 -1.426168 11.112418 2.370374 -9.279778 23.669696 0.000000 0.000000 0.000000 1.218302 -0.994264 7.568980 -11.081075 -8.168463 2.470238 -69.756804 7.872226 -19.024104 173.273416 -81.598023 -157.069284 0.000000 0.000000 0.000000 -2.603954 0.589699 7.374203 15.511985 13.184102 6.098583 15.524899 -39.685189 55.241826 -31.968936 84.206069 -28.785709 0.000000 0.000000 0.000000 
-40.525494 35.025822 -3.704550 179.899847 22.533977 -177.867866 -2.745584 -3.668313 10.895744 -13.829135 4.465033 -7.575695 17.552360 -5.938000 32.266568 -13.115516 -1.903594 -2.825521 0.000000 0.000000 0.000000 2.438075 -2.499963 7.286798 -1.378321 0.031506 -37.378227 -6.375596 2.284683 16.056462 9.687320 5.569802 24.133230 0.000000 0.000000 0.000000 2.761475 -0.172997 -9.244559 2.128199 3.406236 -7.527161 0.427740 -3.575684 7.543873 -0.019844 -0.064223 0.430489 -0.101276 -1.562221 11.133171 2.694163 -9.718421 24.205726 0.000000 0.000000 0.000000 1.437352 -1.018919 7.638000 -11.008084 -7.889750 2.182341 -69.256151 8.277671 -19.554575 172.774375 -81.618076 -157.016405 0.000000 0.000000 0.000000 -2.431783 0.543413 7.448923 16.016949 13.055326 5.879154 15.290335 -39.065342 55.664413 -37.531504 84.785003 -34.576279 0.000000 0.000000 0.000000 
-39.527096 34.933723 -5.018453 -179.846012 22.711026 -177.941126 -3.178378 -3.576852 10.891033 -12.691845 4.614613 -6.203477 17.963599 -5.105694 33.168970 -12.220766 -1.675464 -1.379421 0.000000 0.000000 0.000000 2.190371 -2.472702 7.561581 0.054818 1.085035 -36.307124 -5.907666 2.405179 17.021388 10.256803 6.046059 24.211849 0.000000 0.000000 0.000000 2.688738 0.088952 -9.548957 1.998130 3.492188 -7.865267 0.586846 -3.527459 7.572835 -0.020098 -0.011374 0.302012 0.109667 -1.530025 11.125670 2.884544 -10.128740 24.380212 0.000000 0.000000 0.000000 1.634027 -1.076747 7.465433 -10.771172 -7.896529 2.015738 -68.636694 8.369977 -19.754965 171.584379 -81.645411 -156.295232 0.000000 0.000000 0.000000 -2.192928 0.286032 7.308549 16.477722 12.634743 5.703891 14.786145 -38.182458 56.119430 -41.257703 85.713348 -38.543181 0.000000 0.000000 0.000000 
-38.519989 34.912399 -6.276488 -179.633825 23.174251 -178.127058 -3.679205 -3.833604 10.976117 -11.285694 5.141971 -5.142737 18.429244 -3.738248 34.439846 -11.472218 -1.620587 0.457004 0.000000 0.000000 0.000000 2.005166 -2.804069 8.342786 1.452073 2.228988 -36.024330 -5.279805 2.709324 20.000124 10.246557 6.155623 22.819706 0.000000 0.000000 0.000000 2.639817 0.061693 -9.768528 1.857341 3.502915 -8.161092 0.739097 -3.500748 7.822840 -0.016349 0.038301 0.125231 0.153941 -1.425036 11.031079 3.056349 -10.398775 24.627447 0.000000 0.000000 0.000000 1.642461 -1.012634 7.382850 -10.413314 -7.702937 1.895307 -67.848353 8.004639 -19.962387 172.302423 -81.332991 -157.485885 0.000000 0.000000 0.000000 -2.066236 0.321956 7.148634 16.961933 12.518593 5.620587 14.576614 -37.283038 56.409317 -47.898631 86.281531 -45.405711 0.000000 0.000000 0.000000 
-37.568390 34.952133 -7.408436 -179.392446 23.878201 -178.406235 -4.081883 -4.575776 10.995788 -9.889595 7.303309 -4.625291 18.542300 -2.591899 36.517415 -10.925330 -1.923662 2.620290 0.000000 0.000000 0.000000 1.859253 -2.622982 8.478458 2.510542 3.084054 -33.797333 -5.122868 2.656443 23.094741 9.319320 6.169569 18.291819 0.000000 0.000000 0.000000 2.734842 -0.086661 -9.590367 1.703843 3.487547 -8.370241 0.873283 -3.488482 7.669804 -0.119807 0.026445 0.139571 0.148549 -1.547303 10.994317 3.199402 -10.736395 24.866272 0.000000 0.000000 0.000000 1.705734 -0.857778 7.386881 -9.932799 -7.671729 1.755540 -67.071713 7.211576 -19.907502 172.237850 -81.168643 -157.877091 0.000000 0.000000 0.000000 -2.046920 0.451438 7.013208 17.465511 12.393108 5.478562 14.259977 -36.336323 56.443683 -51.621047 86.736968 -49.339897 0.000000 0.000000 0.000000 
-36.693596 35.037300 -8.386580 -179.343515 25.054034 -178.730396 -4.442320 -5.545170 10.949380 -8.319513 10.508430 -4.670605 17.896895 -3.199551 39.463044 -10.752680 -2.975434 4.745288 0.000000 0.000000 0.000000 1.863773 -2.141075 8.923752 3.308421 3.433977 -31.861231 -4.969234 2.537007 24.234223 8.668483 5.891320 16.602546 0.000000 0.000000 0.000000 2.772249 -0.414459 -9.313345 1.649759 3.546467 -8.486999 0.954742 -3.387058 7.634703 -0.113221 0.133576 0.186090 0.196856 -1.259688 10.881646 3.087096 -10.769736 24.958298 0.000000 0.000000 0.000000 1.722568 -0.946141 7.356849 -9.646562 -7.661378 1.696202 -66.281774 6.099318 -19.743901 172.114073 -81.015196 -158.176635 0.000000 0.000000 0.000000 -2.045622 0.500112 7.156726 17.749119 12.150160 5.342881 14.024424 -35.547207 55.999065 -61.755039 87.158897 -59.657031 0.000000 0.000000 0.000000 
